<?xml version="1.0" encoding="UTF-8"?>
<!-- Created with Inkscape (http://www.inkscape.org/) -->
<svg width="191.86mm" height="38.706mm" version="1.1" viewBox="0 0 191.86 38.706" xml:space="preserve" xmlns="http://www.w3.org/2000/svg"><defs><style>      .cls-1, .cls-2 {        stroke-width: 0px;      }      .cls-2 {        fill: #22dafe;      }    </style></defs><g transform="translate(-7.2992 -137.2)"><path class="cls-1" d="m127.7 150.4c-5.6738 0.0707-9.844 3.7061-9.844 9.8079 0 6.0754 4.2412 9.7007 9.9512 9.7007 1.7186 0 3.263-0.28532 4.636-0.85862 1.3716-0.57331 2.5357-1.3837 3.4908-2.4339l-2.6495-2.6844c-1.4092 1.4319-3.0916 2.1472-5.0473 2.1472-3.1159 0-4.7611-2.1087-5.2455-4.2945h13.98c0.39363-5.4854-1.428-11.384-9.2721-11.384zm-4.8035 8.2326c0.42175-2.8159 2.2532-4.5463 4.8396-4.5463 2.3439 0 4.4668 1.4786 4.5463 4.5476h-9.3846z"/><path class="cls-1" d="m78.088 151.64c-1.3596-0.8238-2.9469-1.235-4.7606-1.235-3.4304 0-5.2414 1.7141-6.2287 3.1586v-10.391h-5.0834v26.561h5.0834v-2.9496c1.3796 2.0052 3.4437 3.1278 6.3359 3.1278 4.7475 0 6.9333-2.8343 7.8388-4.6173 0.73941-1.456 1.1091-3.1385 1.1091-5.0473s-0.3764-3.7051-1.1279-5.1732c-0.75146-1.4681-1.807-2.6134-3.1679-3.4372zm-5.9072 14.193c-3.1367 0-5.0834-2.4462-5.0834-5.7277 0-3.3857 2.0897-5.7277 5.0834-5.7277 2.9925 0 5.0834 2.3418 5.0834 5.7277 0 3.3795-2.0832 5.7277-5.0834 5.7277z"/><rect class="cls-1" x="86.123" y="143.17" width="5.0834" height="26.561"/><path class="cls-1" d="m109.21 160.03c0 1.527-0.40052 2.7982-1.1989 3.8122-0.79969 1.014-1.9155 1.5458-3.3474 1.5927-2.4072 0-3.8658-1.6386-3.8658-4.2596v-10.596h-5.0834v11.991c0 4.2823 2.4858 7.3378 6.944 7.3378 1.6235 0 3.0126-0.35095 4.1712-1.0555 0.98186-0.59742 1.7682-1.4828 2.3803-2.6214v3.4975h5.0834v-19.15h-5.0834z"/><path class="cls-1" d="m155.08 153.53c-1.2138-1.7658-3.1332-3.1626-6.372-3.1626-4.992 0-8.9841 3.5342-8.9841 9.7369 0 5.7499 3.599 9.844 9.0926 9.844 3.5494 0 5.312-1.7302 6.2649-3.1344v2.9188h5.0834v-26.561h-5.0834v10.357zm-0.6443 9.6538c-0.42999 0.85863-1.0261 1.5337-1.7896 2.0227-0.76486 0.48892-1.6596 0.73405-2.6844 0.73405-2.9286 0-5.0433-2.1768-5.1196-5.7277 0.0714-3.5104 2.1362-5.7626 5.1196-5.7626 3.0041 0 5.1183 2.2876 5.1183 5.7639 0 1.1453-0.21432 2.1124-0.6443 2.971z"/><path class="cls-1" d="m173.84 150.4c-6.1562 0-10.238 3.9417-10.238 9.7356 0 5.8273 4.1479 9.773 10.238 9.773 6.1634 0 10.202-4.0452 10.202-9.773 0-5.6783-3.9562-9.7356-10.202-9.7356zm0 15.536c-3.0905 0-5.1183-2.3972-5.1183-5.7277 0-3.351 1.9773-5.7277 5.1183-5.7277 3.0281 0 5.0834 2.2994 5.0834 5.7277 0 3.4279-2.1254 5.7277-5.0834 5.7277z"/><path class="cls-1" d="m198.02 164.97c-0.73942 0.38752-1.7111 0.78763-2.6495 0.78763-1.8473 0-1.8968-1.66-1.8968-2.399v-8.5193h5.3339v-3.472h-5.3339v-5.2629h-5.0834v5.2629h-2.6844v3.472h2.6844v9.3431c0 4.5807 3.3358 5.7626 5.8349 5.7626 2.2911 0 4.0364-0.81823 4.9414-1.3596l-1.1453-3.6153z"/><circle class="cls-2" cx="26.652" cy="156.56" r="19.353"/></g></svg>
